<svg xmlns="http://www.w3.org/2000/svg" viewBox="0 0 128 128" width="128" height="128">
  <!-- cssdoc mark, dark-mode variant: a dark-mode-teal rounded square with `{*}` punched out as a transparent cutout. -->
  <mask id="cut">
    <rect x="8" y="8" width="112" height="112" rx="24" fill="white" />
    <g fill="none" stroke="black" stroke-linecap="round" stroke-linejoin="round">
      <g stroke-width="7">
        <path d="M 84 64 q -6 0 -6 6 l 0 11 q 0 6 -6 6 q 6 0 6 6 l 0 11 q 0 6 6 6" />
        <path d="M 100 64 q 6 0 6 6 l 0 11 q 0 6 6 6 q -6 0 -6 6 l 0 11 q 0 6 -6 6" />
      </g>
      <g stroke-width="5">
        <path d="M 92 80 L 92 94" />
        <path d="M 86 83.5 L 98 90.5" />
        <path d="M 86 90.5 L 98 83.5" />
      </g>
    </g>
  </mask>
  <rect x="8" y="8" width="112" height="112" rx="24" fill="#1DC4B6" mask="url(#cut)" />
</svg>
